{"title":"The Host 2013 TS XviD AC3 - TODE","uid":8362806,"size":712248946,"categoryP":"video","categoryS":"movies","magnet":"?xt=urn:btih:5a1776756155b61e84bf922cbde7bfe18c9f9021&amp;dn=The+Host+2013+TS+XviD+AC3+-+TODE&amp;tr=udp%3A%2F%2Ftracker.openbittorrent.com%3A80&amp;tr=udp%3A%2F%2Fopen.demonii.com%3A1337&amp;tr=udp%3A%2F%2Ftracker.coppersurfer.tk%3A6969&amp;tr=udp%3A%2F%2Fexodus.desync.com%3A6969","seeders":1,"leechers":0,"uploader":"xxxlavalxxx","files":-1,"time":1365638889,"description":" &lt;a href=&quot;http://www.imdb.com/title/tt1517260/&quot; rel=&quot;nofollow&quot; target=&quot;_NEW&quot;&gt;http://www.imdb.com/title/tt1517260/&lt;/a&gt;\n\n\nPlot: When an unseen enemy threatens mankind by taking over their bodies and erasing their memories, Melanie will risk everything to protect the people she cares most about, proving that love can conquer all in a dangerous new world. \n\n\n\nDirector:\n Andrew Niccol \n\nWriters:\n Stephenie Meyer (novel), Andrew Niccol (screenplay) \n\nStars:\n Saoirse Ronan, Max Irons, Jake Abel \n\nGenres:\n  Action |  Adventure |  Romance |  Sci-Fi |  Thriller \n\nCountry:\n USA \n\nLanguage:\n English \n\n\n\n\n\nFormat                                   : AVI\nFormat/Info                              : Audio Video Interleave\nFile size                                : 670 MiB\nDuration                                 : 1h 51mn\nOverall bit rate                         : 837 Kbps\nWriting application                      : Lavf54.59.103\n\nVideo\nID                                       : 0\nFormat                                   : MPEG-4 Visual\nFormat profile                           : Simple@L3\nFormat settings, BVOP                    : No\nFormat settings, QPel                    : No\nFormat settings, GMC                     : No warppoints\nFormat settings, Matrix                  : Default (H.263)\nCodec ID                                 : XVID\nCodec ID/Hint                            : XviD\nDuration                                 : 1h 51mn\nBit rate                                 : 698 Kbps\nWidth                                    : 640 pixels\nHeight                                   : 240 pixels\nDisplay aspect ratio                     : 2.647\nFrame rate                               : 25.000 fps\nColor space                              : YUV\nChroma subsampling                       : 4:2:0\nBit depth                                : 8 bits\nScan type                                : Progressive\nCompression mode                         : Lossy\nBits/(Pixel*Frame)                       : 0.182\nStream size                              : 559 MiB (83%)\nWriting library                          : XviD 64\n\nAudio\nID                                       : 1\nFormat                                   : AC-3\nFormat/Info                              : Audio Coding 3\nMode extension                           : CM (complete main)\nFormat settings, Endianness              : Big\nCodec ID                                 : 2000\nDuration                                 : 1h 51mn\nBit rate mode                            : Constant\nBit rate                                 : 128 Kbps\nChannel(s)                               : 2 channels\nChannel positions                        : Front: L R\nSampling rate                            : 48.0 KHz\nBit depth                                : 16 bits\nCompression mode                         : Lossy\nStream size                              : 102 MiB (15%)\nAlignment                                : Aligned on interleaves\nInterleave, duration                     : 32 ms (0.80 video frame)\n\n\n\n &lt;a href=&quot;\nhttp://www.shotpix.com/images/65585758754603041342.png&quot; rel=&quot;nofollow&quot; target=&quot;_NEW&quot;&gt;\nhttp://www.shotpix.com/images/65585758754603041342.png&lt;/a&gt; &lt;a href=&quot;\nhttp://www.shotpix.com/images/71563871611775272031.png&quot; rel=&quot;nofollow&quot; target=&quot;_NEW&quot;&gt;\nhttp://www.shotpix.com/images/71563871611775272031.png&lt;/a&gt; &lt;a href=&quot;\nhttp://www.shotpix.com/images/32702382143845121512.png&quot; rel=&quot;nofollow&quot; target=&quot;_NEW&quot;&gt;\nhttp://www.shotpix.com/images/32702382143845121512.png&lt;/a&gt; &lt;a href=&quot;\nhttp://www.shotpix.com/images/57450090764610863627.png&quot; rel=&quot;nofollow&quot; target=&quot;_NEW&quot;&gt;\nhttp://www.shotpix.com/images/57450090764610863627.png&lt;/a&gt; &lt;a href=&quot;\nhttp://www.shotpix.com/images/21019717771931328712.png&quot; rel=&quot;nofollow&quot; target=&quot;_NEW&quot;&gt;\nhttp://www.shotpix.com/images/21019717771931328712.png&lt;/a&gt;\n\n","torrent":{"xt":"urn:btih:5a1776756155b61e84bf922cbde7bfe18c9f9021","amp;dn":"The+Host+2013+TS+XviD+AC3+-+TODE","amp;tr":["udp%3A%2F%2Ftracker.openbittorrent.com%3A80","udp%3A%2F%2Fopen.demonii.com%3A1337","udp%3A%2F%2Ftracker.coppersurfer.tk%3A6969","udp%3A%2F%2Fexodus.desync.com%3A6969"],"infoHash":"5a1776756155b61e84bf922cbde7bfe18c9f9021","infoHashBuffer":{"type":"Buffer","data":[90,23,118,117,97,85,182,30,132,191,146,44,189,231,191,225,140,159,144,33]},"announce":[],"urlList":[]}}